<?xml version="1.0" standalone="no"?><!DOCTYPE svg PUBLIC "-//W3C//DTD SVG 1.1//EN" "http://www.w3.org/Graphics/SVG/1.1/DTD/svg11.dtd"><svg t="1502799383096" class="icon" style="" viewBox="0 0 1024 1024" version="1.1" xmlns="http://www.w3.org/2000/svg" p-id="3597" xmlns:xlink="http://www.w3.org/1999/xlink" width="32" height="32"><defs><style type="text/css"></style></defs><path d="M559.483966 113.602338c-207.448726 0-375.621936 147.143245-375.621936 328.665485 0 181.51917 168.174234 328.665485 375.621936 328.665485 24.01802 0 47.437405-2.172479 70.210062-5.946432l164.5548 99.852172L794.248827 698.607048c85.797062-60.23078 140.855028-152.600537 140.855028-256.338203C935.104879 260.746606 766.930645 113.602338 559.483966 113.602338L559.483966 113.602338zM442.105628 559.64616c-12.96222 0-23.477714-10.504238-23.477714-23.472598 0-12.966313 10.515494-23.476691 23.477714-23.476691l234.760768 0c12.967336 0 23.476691 10.510378 23.476691 23.476691 0 12.968359-10.510378 23.472598-23.476691 23.472598L442.105628 559.64616 442.105628 559.64616zM395.1502 418.791132c-12.96222 0-23.472598-10.515494-23.477714-23.476691 0-12.968359 10.515494-23.477714 23.477714-23.477714l328.671625 0c12.966313 0 23.471574 10.509355 23.471574 23.477714 0 12.96222-10.510378 23.476691-23.471574 23.476691L395.1502 418.791132 395.1502 418.791132zM395.1502 418.791132" p-id="3598" fill="#ACE1AF"></path><path d="M545.102421 782.176372c-1.12973 0.451278-2.242064 0.927115-3.381004 1.36509-35.960003 13.860682-74.402547 21.457708-114.254184 22.590508-7.191796 0.201591-14.017248 3.221368-19.008936 8.40646-0.148379 0.151449-15.292288 15.615653-40.068578 31.504528-14.757099 9.463536-29.892821 17.154705-44.985564 22.86066-9.366322 3.539616-18.723434 6.311753-28.003797 8.30413 11.637038-25.310456 14.092973-51.729152 7.016811-77.643358-2.260483-8.276501-8.256034-15.022135-16.20917-18.23327-50.547233-20.420075-93.216032-52.234665-123.386168-92.00546-30.394241-40.069601-46.462195-86.415139-46.462195-134.027529 0-49.424666 17.184381-95.54917 46.810119-134.424572-6.995321-6.186909-13.252839-13.18837-18.614963-20.849864-35.141358 44.351114-55.660694 97.773837-55.660694 155.275459 0 111.008256 76.449159 206.831672 187.026604 251.501034 9.060353 33.189913-4.486174 61.419861-17.615193 79.408561-6.721075 9.203616-0.119727 22.017456 11.06194 22.017456 0.248663 0 0.499373-0.00614 0.754177-0.016373 90.75498-4.626367 158.12332-74.621535 158.12332-74.621535 46.8971-1.331321 91.212398-11.08036 130.99752-27.501354C553.624515 798.73449 548.860001 790.713816 545.102421 782.176372z" p-id="3599" fill="#ACE1AF"></path></svg>