<?xml version="1.0" standalone="no"?><!DOCTYPE svg PUBLIC "-//W3C//DTD SVG 1.1//EN" "http://www.w3.org/Graphics/SVG/1.1/DTD/svg11.dtd"><svg t="1502798969859" class="icon" style="" viewBox="0 0 1024 1024" version="1.1" xmlns="http://www.w3.org/2000/svg" p-id="559" xmlns:xlink="http://www.w3.org/1999/xlink" width="32" height="32"><defs><style type="text/css"></style></defs><path d="M84.667284 319.477885 531.710544 161.432288 974.238215 323.993474 535.097235 609.604445Z" p-id="560" fill="#0b6e48"></path><path d="M77.893901 317.220091 81.280593 694.271729 38.382502 745.072099Z" p-id="561" fill="#0b6e48"></path><path d="M81.366389 693.127027 125.30758 745.072099 81.366389 693.127027Z" p-id="562" fill="#0b6e48"></path><path d="M234.058756 483.167968c-6.355691-2.781603-12.230471 193.605856-9.031177 209.95906 0 0-0.90086 11.869224 127.782123 124.776999 33.668228 22.036072 88.966124 60.377934 129.606421 72.421008 0 0 64.724188 7.52297 83.538387-3.011898 21.826097-6.019279 245.722521-145.06328 288.997663-220.509732C852.317326 606.217754 840.651303 501.230321 828.610486 483.167968c-9.783022-2.257794-279.964228 201.28913-295.016942 204.879023S258.142647 493.705093 234.058756 483.167968z" p-id="563" fill="#0b6e48"></path></svg>