<?xml version="1.0" standalone="no"?><!DOCTYPE svg PUBLIC "-//W3C//DTD SVG 1.1//EN" "http://www.w3.org/Graphics/SVG/1.1/DTD/svg11.dtd"><svg t="1502799170894" class="icon" style="" viewBox="0 0 1024 1024" version="1.1" xmlns="http://www.w3.org/2000/svg" p-id="1338" xmlns:xlink="http://www.w3.org/1999/xlink" width="32" height="32"><defs><style type="text/css"></style></defs><path d="M581.719661 811.830668h-264.91063c-35.642521 0-71.52587 1.324553-107.047977-0.963311-10.235183-0.722484-22.276576-4.936971-22.39699-19.145814 0.481656-12.161806 12.643462-16.857949 22.758231-16.978363 123.063029-1.204139 246.246472-1.926623 369.189088 0.120414 33.956726 0.60207 48.526811-11.680151 55.26999-42.867357 13.606773-63.578551 6.984008-123.183443-27.454374-179.296331-10.476011-17.098777-22.999059-18.182502-43.830668-19.988711-59.364064-5.057385-75.379116 35.160865-96.933208 73.693321-18.784572 33.595484-19.507056 33.234243-59.845719 18.784571-4.334901 5.900282-10.235183 11.920978-13.847602 19.0254-10.476011 20.590781-24.323612 25.527752-44.553151 12.402634-14.329257-9.271872-29.742239-17.098777-44.553151-25.768579-45.636877-26.731891-45.636877-26.731891-21.674507-76.944497-39.495767-19.266228-25.16651-43.710254-7.947318-72.489181C328.730009 390.502352 381.952963 298.626529 434.453434 206.389464c14.690499-25.888993 29.019755-43.58984 62.253998-19.386642 11.318909-18.664158 21.19285-34.799624 30.585136-50.212606-2.167451-3.973659-2.76952-6.74318-4.455315-8.067732-18.302916-14.088429-43.349012-26.852305-25.046096-55.029163 18.784572-28.899341 42.144873-14.329257 64.180621-1.806209 40.459078 22.999059 81.520226 45.275635 121.618062 68.997178 21.19285 12.523048 52.380056 22.637817 36.124177 56.594543-16.135466 33.715898-42.626529 16.857949-68.75635 4.334902-10.476011 17.941675-20.109125 34.197554-31.187206 52.982126 35.522107 17.821261 32.993415 40.82032 13.125118 67.913452-19.988711 27.093133-26.009407 54.306679-16.85795 82.24271 2.408278 7.465663 4.696143 19.627469 4.816557 20.59078 7.706491 54.667921 41.663217 79.954845 61.772343 125.350894 50.935089 114.754468 32.752587 220.718721-46.841016 317.170273-7.465663 9.031044-15.412982 17.580433-28.297272 32.270931 73.091251 0 138.957667-0.60207 204.824083 0.361242 25.527752 0.361242 61.170273-8.549389 62.01317 31.90969 0.963311 44.071496-36.84666 33.956726-63.096896 34.07714-199.405456 0.60207-398.810913 0.361242-598.216368 0.361241-7.345249 0-14.810913-0.120414-22.156162-0.120413-23.841957 0.240828-42.506115-6.74318-41.42239-34.438382 0.963311-24.925682 18.182502-32.030103 40.579492-31.90969 73.813735 0.120414 147.747883 0.120414 221.561618 0 56.47413 0 105.60301-19.266228 149.313265-54.306679 9.392286-7.586077 13.004704-13.125118 21.433678-21.313264 4.936971-3.973659 1.685795-13.245532-0.60207-13.125118zM472.985889 219.15334c-58.882408 101.388523-114.874882 197.840075-171.951082 296.21825 24.925682 14.449671 44.914393 26.250235 65.143932 37.689558 20.831609 11.800564 41.904045 23.360301 63.81938 35.522107 22.276576-37.569144 50.694262-63.458137 21.554092-112.707432-30.344309-51.296331 15.412982-123.665099 74.054562-122.220132 47.322672 1.204139 60.568203-24.56444 74.89746-60.929445L472.985889 219.15334z m121.015992 224.933208c0-29.260583-27.93603-55.631232-57.678269-54.547508-28.778928 1.083725-53.825024 26.611477-53.584195 54.788335s25.286924 53.10254 54.065851 53.945438c30.825964 0.963311 57.196613-24.082785 57.196613-54.186265zM584.007526 236.733772c11.439323-20.349953 21.072437-37.569144 31.548448-56.112888-18.543744-10.716839-32.993415-19.145814-49.971778-29.019755-11.318909 19.386642-21.554092 36.726246-32.993415 56.233302 18.062088 10.11477 33.475071 18.784572 51.416745 28.899341z" p-id="1339" fill="#483C32"></path></svg>