<?xml version="1.0" standalone="no"?><!DOCTYPE svg PUBLIC "-//W3C//DTD SVG 1.1//EN" "http://www.w3.org/Graphics/SVG/1.1/DTD/svg11.dtd"><svg t="1502799488687" class="icon" style="" viewBox="0 0 1114 1024" version="1.1" xmlns="http://www.w3.org/2000/svg" p-id="4747" xmlns:xlink="http://www.w3.org/1999/xlink" width="34.8125" height="32"><defs><style type="text/css"></style></defs><path d="M974.499144 136.415392h-208.853088V68.209368A68.874711 68.874711 0 0 0 696.102659 0.003343H417.706175a68.874711 68.874711 0 0 0-69.543398 68.206025v68.206024H139.30969A137.972317 137.972317 0 0 0 0 273.050336v614.300009a137.972317 137.972317 0 0 0 139.30969 136.634944h835.189454A137.972317 137.972317 0 0 0 1114.47752 887.350345V273.050336a137.972317 137.972317 0 0 0-139.30969-136.634944z m-557.23876-34.103012a34.548803 34.548803 0 0 1 35.217489-34.103012h208.853087a34.548803 34.548803 0 0 1 34.771699 34.103012v34.103012H417.706175V102.31238z m627.005052 785.037965a68.874711 68.874711 0 0 1-69.543397 68.206024H139.30969a68.874711 68.874711 0 0 1-69.543397-68.206024V512.663003H423.501458a133.737302 133.737302 0 0 0-4.903701 34.103012 139.30969 139.30969 0 0 0 278.396484 0A133.737302 133.737302 0 0 0 690.976062 512.663003h353.289374v374.687342z m-557.23876-341.253017a66.868651 66.868651 0 0 1 9.807402-33.434325h119.917782a66.868651 66.868651 0 0 1 9.584506 34.103012 69.543397 69.543397 0 0 1-139.30969 0z m557.23876-102.309036H69.543397v-170.737956a68.874711 68.874711 0 0 1 69.766293-68.206024h835.189454a68.874711 68.874711 0 0 1 69.543397 68.206024v170.51506z m0 0" p-id="4748" fill="#483C32"></path></svg>